<?xml version="1.0" encoding="iso-8859-1"?>
<!-- Generator: Adobe Illustrator 19.0.0, SVG Export Plug-In . SVG Version: 6.00 Build 0)  -->
<svg version="1.1" id="Capa_1" xmlns="http://www.w3.org/2000/svg" xmlns:xlink="http://www.w3.org/1999/xlink" x="0px" y="0px"
	 viewBox="0 0 490.667 490.667" style="enable-background:new 0 0 490.667 490.667;" xml:space="preserve">
<g>
	<g>
		<path d="M245.333,85.333c-41.173,0-74.667,33.493-74.667,74.667s33.493,74.667,74.667,74.667S320,201.173,320,160
			C320,118.827,286.507,85.333,245.333,85.333z M245.333,213.333C215.936,213.333,192,189.397,192,160
			c0-29.397,23.936-53.333,53.333-53.333s53.333,23.936,53.333,53.333S274.731,213.333,245.333,213.333z"/>
	</g>
</g>
<g>
	<g>
		<path d="M394.667,170.667c-29.397,0-53.333,23.936-53.333,53.333s23.936,53.333,53.333,53.333S448,253.397,448,224
			S424.064,170.667,394.667,170.667z M394.667,256c-17.643,0-32-14.357-32-32c0-17.643,14.357-32,32-32s32,14.357,32,32
			C426.667,241.643,412.309,256,394.667,256z"/>
	</g>
</g>
<g>
	<g>
		<path d="M97.515,170.667c-29.419,0-53.333,23.936-53.333,53.333s23.936,53.333,53.333,53.333s53.333-23.936,53.333-53.333
			S126.933,170.667,97.515,170.667z M97.515,256c-17.643,0-32-14.357-32-32c0-17.643,14.357-32,32-32c17.643,0,32,14.357,32,32
			C129.515,241.643,115.157,256,97.515,256z"/>
	</g>
</g>
<g>
	<g>
		<path d="M245.333,256c-76.459,0-138.667,62.208-138.667,138.667c0,5.888,4.779,10.667,10.667,10.667S128,400.555,128,394.667
			c0-64.704,52.629-117.333,117.333-117.333s117.333,52.629,117.333,117.333c0,5.888,4.779,10.667,10.667,10.667
			c5.888,0,10.667-4.779,10.667-10.667C384,318.208,321.792,256,245.333,256z"/>
	</g>
</g>
<g>
	<g>
		<path d="M394.667,298.667c-17.557,0-34.752,4.8-49.728,13.867c-5.013,3.072-6.635,9.621-3.584,14.656
			c3.093,5.035,9.621,6.635,14.656,3.584C367.637,323.712,380.992,320,394.667,320c41.173,0,74.667,33.493,74.667,74.667
			c0,5.888,4.779,10.667,10.667,10.667c5.888,0,10.667-4.779,10.667-10.667C490.667,341.739,447.595,298.667,394.667,298.667z"/>
	</g>
</g>
<g>
	<g>
		<path d="M145.707,312.512c-14.955-9.045-32.149-13.845-49.707-13.845c-52.928,0-96,43.072-96,96
			c0,5.888,4.779,10.667,10.667,10.667s10.667-4.779,10.667-10.667C21.333,353.493,54.827,320,96,320
			c13.675,0,27.029,3.712,38.635,10.752c5.013,3.051,11.584,1.451,14.656-3.584C152.363,322.133,150.741,315.584,145.707,312.512z"
			/>
	</g>
</g>
<g>
</g>
<g>
</g>
<g>
</g>
<g>
</g>
<g>
</g>
<g>
</g>
<g>
</g>
<g>
</g>
<g>
</g>
<g>
</g>
<g>
</g>
<g>
</g>
<g>
</g>
<g>
</g>
<g>
</g>
</svg>
