<svg width="32" height="26" viewBox="0 0 32 26" fill="none" xmlns="http://www.w3.org/2000/svg">
<g clip-path="url(#clip0)">
<path d="M21.285 12.8C20.44 12.8 19.645 12.35 19.215 11.63L16 6.29999L12.79 11.63C12.355 12.355 11.56 12.805 10.715 12.805C10.49 12.805 10.265 12.775 10.05 12.71L3.20001 10.75V19.65C3.20001 20.385 3.70001 21.025 4.41001 21.2L15.22 23.905C15.73 24.03 16.265 24.03 16.77 23.905L27.59 21.2C28.3 21.02 28.8 20.38 28.8 19.65V10.75L21.95 12.705C21.735 12.77 21.51 12.8 21.285 12.8ZM31.915 7.18999L29.34 2.04999C29.185 1.73999 28.85 1.55999 28.505 1.60499L16 3.19999L20.585 10.805C20.775 11.12 21.155 11.27 21.51 11.17L31.405 8.34499C31.9 8.19999 32.14 7.64999 31.915 7.18999V7.18999ZM2.66001 2.04999L0.0850105 7.18999C-0.144989 7.64999 0.10001 8.19999 0.59001 8.33999L10.485 11.165C10.84 11.265 11.22 11.115 11.41 10.8L16 3.19999L3.49001 1.60499C3.14501 1.56499 2.81501 1.73999 2.66001 2.04999V2.04999Z" fill="white"/>
</g>
<defs>
<clipPath id="clip0">
<rect width="32" height="25.6" fill="white"/>
</clipPath>
</defs>
</svg>
