<svg width="512" height="512" viewBox="0 0 512 512" fill="none" xmlns="http://www.w3.org/2000/svg">
<g clip-path="url(#clip0)">
<path d="M511.988 288.9C511.51 306.33 496.771 320 479.335 320H424V336C424 357.864 419.118 378.584 410.4 397.145L470.628 457.373C483.124 469.87 483.124 490.131 470.628 502.628C458.13 515.125 437.869 515.124 425.372 502.628L370.636 447.892C345.886 467.965 314.351 480 280 480V236C280 229.373 274.627 224 268 224H244C237.373 224 232 229.373 232 236V480C197.649 480 166.114 467.965 141.364 447.892L86.6279 502.628C74.1299 515.125 53.8689 515.124 41.3719 502.628C28.8759 490.131 28.8759 469.87 41.3719 457.373L101.6 397.145C92.8819 378.584 87.9999 357.864 87.9999 336V320H32.6659C15.2299 320 0.490884 306.33 0.0128842 288.9C-0.484116 270.816 14.0279 256 31.9999 256H87.9999V197.255L41.3719 150.627C28.8759 138.13 28.8759 117.869 41.3719 105.372C53.8699 92.875 74.1299 92.875 86.6279 105.372L141.255 160H370.744L425.371 105.373C437.869 92.876 458.129 92.876 470.627 105.373C483.123 117.87 483.123 138.131 470.627 150.628L424 197.255V256H480C497.972 256 512.484 270.816 511.988 288.9ZM257 0C195.144 0 145 50.144 145 112H369C369 50.144 318.856 0 257 0Z" fill="#3162AC"/>
</g>
<defs>
<clipPath id="clip0">
<rect width="512" height="512" fill="white"/>
</clipPath>
</defs>
</svg>
