<svg width="32" height="34" viewBox="0 0 32 34" fill="none" xmlns="http://www.w3.org/2000/svg">
<path d="M16 0.516113C7.16323 0.516113 0 7.67934 0 16.5161C0 25.3529 7.16323 32.5161 16 32.5161C24.8368 32.5161 32 25.3529 32 16.5161C32 7.67934 24.8368 0.516113 16 0.516113ZM16 28.3871C9.43935 28.3871 4.12903 23.078 4.12903 16.5161C4.12903 9.95547 9.43806 4.64515 16 4.64515C22.5606 4.64515 27.871 9.95418 27.871 16.5161C27.871 23.0768 22.5619 28.3871 16 28.3871ZM16 8.25805C11.4394 8.25805 7.74194 11.9555 7.74194 16.5161C7.74194 21.0768 11.4394 24.7742 16 24.7742C20.5606 24.7742 24.2581 21.0768 24.2581 16.5161C24.2581 11.9555 20.5606 8.25805 16 8.25805ZM16 20.6451C13.7232 20.6451 11.871 18.7929 11.871 16.5161C11.871 14.2393 13.7232 12.3871 16 12.3871C18.2768 12.3871 20.129 14.2393 20.129 16.5161C20.129 18.7929 18.2768 20.6451 16 20.6451Z" fill="black"/>
</svg>
