<svg width="14" height="16" viewBox="0 0 14 16" fill="none" xmlns="http://www.w3.org/2000/svg">
<path d="M13 1H0.996875C0.446875 1 0 1.45313 0 2.00938V13.9906C0 14.5469 0.446875 15 0.996875 15H13C13.55 15 14 14.5469 14 13.9906V2.00938C14 1.45313 13.55 1 13 1ZM4.23125 13H2.15625V6.31875H4.23438V13H4.23125ZM3.19375 5.40625C2.52812 5.40625 1.99063 4.86563 1.99063 4.20313C1.99063 3.54063 2.52812 3 3.19375 3C3.85625 3 4.39687 3.54063 4.39687 4.20313C4.39687 4.86875 3.85937 5.40625 3.19375 5.40625V5.40625ZM12.0094 13H9.93437V9.75C9.93437 8.975 9.91875 7.97813 8.85625 7.97813C7.775 7.97813 7.60938 8.82188 7.60938 9.69375V13H5.53438V6.31875H7.525V7.23125H7.55312C7.83125 6.70625 8.50938 6.15313 9.51875 6.15313C11.6188 6.15313 12.0094 7.5375 12.0094 9.3375V13V13Z" fill="black"/>
</svg>
