<svg width="512" height="512" viewBox="0 0 512 512" fill="none" xmlns="http://www.w3.org/2000/svg">
<path d="M448 192V77.25C448 68.76 444.63 60.63 438.63 54.62L393.37 9.37C387.37 3.37 379.23 0 370.74 0H96C78.33 0 64 14.33 64 32V192C28.65 192 0 220.65 0 256V368C0 376.84 7.16 384 16 384H64V480C64 497.67 78.33 512 96 512H416C433.67 512 448 497.67 448 480V384H496C504.84 384 512 376.84 512 368V256C512 220.65 483.35 192 448 192ZM384 448H128V352H384V448ZM384 224H128V64H320V112C320 120.84 327.16 128 336 128H384V224ZM432 296C418.75 296 408 285.25 408 272C408 258.74 418.75 248 432 248C445.25 248 456 258.74 456 272C456 285.25 445.25 296 432 296Z" fill="#3162AC"/>
</svg>
