<svg width="50" height="67" viewBox="0 0 50 67" fill="none" xmlns="http://www.w3.org/2000/svg">
<g clip-path="url(#clip0)">
<path d="M26.3049 0C15.9118 0 9.18011 4.2582 3.89509 11.8523C2.93636 13.2299 3.23194 15.1187 4.56931 16.1328L10.1862 20.3918C11.5369 21.4159 13.4586 21.1764 14.5161 19.8517C17.7776 15.7656 20.197 13.413 25.2917 13.413C29.2974 13.413 34.2521 15.991 34.2521 19.8754C34.2521 22.8118 31.828 24.3199 27.8728 26.5374C23.2605 29.1233 17.1568 32.3415 17.1568 40.3922V41.6667C17.1568 43.3926 18.5559 44.7917 20.2818 44.7917H29.7181C31.444 44.7917 32.8431 43.3926 32.8431 41.6667V40.915C32.8431 35.3342 49.1541 35.1018 49.1541 20C49.1542 8.62708 37.3571 0 26.3049 0ZM25 48.6275C20.0266 48.6275 15.9804 52.6737 15.9804 57.6471C15.9804 62.6204 20.0266 66.6667 25 66.6667C29.9735 66.6667 34.0197 62.6204 34.0197 57.647C34.0197 52.6736 29.9735 48.6275 25 48.6275Z" fill="white"/>
</g>
<defs>
<clipPath id="clip0">
<rect width="50" height="66.6667" fill="white"/>
</clipPath>
</defs>
</svg>
