<svg width="576" height="512" viewBox="0 0 576 512" fill="none" xmlns="http://www.w3.org/2000/svg">
<g clip-path="url(#clip0)">
<path d="M568.482 177.448L424.479 313.433C409.3 327.768 384 317.14 384 295.985V224.022C239.425 224.992 178.434 259.135 219.225 395.375C223.708 410.348 206.379 421.942 194.219 412.705C155.252 383.105 120 326.488 120 269.339C120 125.402 237.599 96.839 384 96.027V24.012C384 2.83798 409.317 -7.75602 424.479 6.56398L568.482 142.552C578.502 152.015 578.51 167.977 568.482 177.448V177.448ZM384 379.128V448H64V128H114.916C116.532 127.999 118.131 127.671 119.617 127.037C121.103 126.402 122.446 125.474 123.564 124.307C138.517 108.739 155.801 96.417 174.578 86.631C185.708 80.83 181.584 64 169.033 64H48C21.49 64 0 85.49 0 112V464C0 490.51 21.49 512 48 512H400C426.51 512 448 490.51 448 464V375.194C448 366.906 439.803 361.128 431.989 363.892C421.034 367.767 409.302 368.925 397.8 367.269C390.53 366.223 384 371.783 384 379.128V379.128Z" fill="#3162AC"/>
</g>
<defs>
<clipPath id="clip0">
<rect width="576" height="512" fill="white"/>
</clipPath>
</defs>
</svg>
