<?xml version="1.0" encoding="iso-8859-1"?>
<!-- Generator: Adobe Illustrator 19.0.0, SVG Export Plug-In . SVG Version: 6.00 Build 0)  -->
<svg version="1.1" id="Layer_1" xmlns="http://www.w3.org/2000/svg" xmlns:xlink="http://www.w3.org/1999/xlink" x="0px" y="0px"
	 viewBox="0 0 490 490" style="enable-background:new 0 0 490 490;" xml:space="preserve">
<g>
	<g>
		<g>
			<path d="M155,345H85c-5.523,0-10,4.477-10,10v60c0,5.523,4.477,10,10,10h70c5.523,0,10-4.477,10-10v-60
				C165,349.477,160.523,345,155,345z M145,405H95v-40h50V405z"/>
			<rect x="180" y="360" width="45" height="20"/>
			<rect x="180" y="390" width="115" height="20"/>
			<rect x="375" y="400" width="40" height="20"/>
			<rect x="375" y="370" width="40" height="20"/>
			<path d="M489.383,256.543l-35-95C452.935,157.612,449.19,155,445,155h-60V35c0-5.523-4.477-10-10-10H115c-5.523,0-10,4.477-10,10
				v120H45c-4.124,0-7.825,2.532-9.32,6.376l-35,90c-1.197,3.077-0.798,6.546,1.066,9.27C3.61,263.371,6.699,265,10,265h25v190
				c0,5.523,4.477,10,10,10h400c5.523,0,10-4.477,10-10V270h25c3.269,0,6.332-1.598,8.203-4.28
				C490.073,263.038,490.514,259.611,489.383,256.543z M125,45h160v30H125V45z M125,95h160v60H125V95z M24.619,245l27.222-70h278.54
				l-27.222,70H24.619z M335,445H55V265h255c4.124,0,7.825-2.532,9.32-6.375l15.68-40.32V445z M305,155V45h60v110h-20H305z M435,445
				h-80V209.471l25.962,54.81c1.655,3.493,5.173,5.719,9.038,5.719h45V445z M396.328,250l-35.526-75h77.225l27.631,75H396.328z"/>
			<rect x="320" y="65" width="30" height="20"/>
			<rect x="320" y="95" width="30" height="20"/>
		</g>
	</g>
</g>
<g>
</g>
<g>
</g>
<g>
</g>
<g>
</g>
<g>
</g>
<g>
</g>
<g>
</g>
<g>
</g>
<g>
</g>
<g>
</g>
<g>
</g>
<g>
</g>
<g>
</g>
<g>
</g>
<g>
</g>
</svg>
