<?xml version="1.0" encoding="UTF-8" standalone="no"?><svg xmlns="http://www.w3.org/2000/svg" xmlns:xlink="http://www.w3.org/1999/xlink" contentScriptType="application/ecmascript" contentStyleType="text/css" height="318px" preserveAspectRatio="none" style="width:588px;height:318px;" version="1.1" viewBox="0 0 588 318" width="588px" zoomAndPan="magnify"><defs><filter height="300%" id="f1hrdo0sifbjit" width="300%" x="-1" y="-1"><feGaussianBlur result="blurOut" stdDeviation="2.0"/><feColorMatrix in="blurOut" result="blurOut2" type="matrix" values="0 0 0 0 0 0 0 0 0 0 0 0 0 0 0 0 0 0 .4 0"/><feOffset dx="4.0" dy="4.0" in="blurOut2" result="blurOut3"/><feBlend in="SourceGraphic" in2="blurOut3" mode="normal"/></filter></defs><g><!--cluster petstore--><rect fill="#98FB98" filter="url(#f1hrdo0sifbjit)" height="128" rx="12.5" ry="12.5" style="stroke: #000000; stroke-width: 1.5;" width="119" x="63" y="86"/><text fill="#000000" font-family="sans-serif" font-size="14" font-style="italic" lengthAdjust="spacingAndGlyphs" textLength="68" x="88.5" y="100.9951">«Service»</text><text fill="#000000" font-family="sans-serif" font-size="14" font-weight="bold" lengthAdjust="spacingAndGlyphs" textLength="67" x="89" y="117.292">petstore</text><!--entity petstore_api_v2--><rect fill="#ADD8E6" filter="url(#f1hrdo0sifbjit)" height="76.8906" style="stroke: #000000; stroke-width: 1.5;" width="68" x="71" y="129"/><text fill="#000000" font-family="sans-serif" font-size="14" font-style="italic" lengthAdjust="spacingAndGlyphs" textLength="39" x="85.5" y="151.9951">«API»</text><text fill="#000000" font-family="sans-serif" font-size="14" font-weight="bold" lengthAdjust="spacingAndGlyphs" textLength="24" x="81" y="168.292">/v2</text><line style="stroke: #000000; stroke-width: 1.0;" x1="72" x2="138" y1="171.5938" y2="171.5938"/><line style="stroke: #000000; stroke-width: 1.0;" x1="72" x2="138" y1="173.5938" y2="173.5938"/><text fill="#000000" font-family="sans-serif" font-size="14" lengthAdjust="spacingAndGlyphs" textLength="36" x="87" y="188.5889">/pets</text><!--entity gateway--><rect fill="#FEFECE" filter="url(#f1hrdo0sifbjit)" height="60.5938" style="stroke: #000000; stroke-width: 1.5;" width="142" x="34" y="8"/><text fill="#000000" font-family="sans-serif" font-size="14" font-weight="bold" lengthAdjust="spacingAndGlyphs" textLength="95" x="44" y="30.9951">API Gateway</text><line style="stroke: #000000; stroke-width: 1.0;" x1="35" x2="175" y1="34.2969" y2="34.2969"/><line style="stroke: #000000; stroke-width: 1.0;" x1="35" x2="175" y1="36.2969" y2="36.2969"/><text fill="#000000" font-family="sans-serif" font-size="14" lengthAdjust="spacingAndGlyphs" textLength="110" x="50" y="51.292">/api/v2/petstore</text><path d="M211.5,18.5 L211.5,34.5 L176.1211,38.5 L211.5,42.5 L211.5,58.7656 A0,0 0 0 0 211.5,58.7656 L576.5,58.7656 A0,0 0 0 0 576.5,58.7656 L576.5,28.5 L566.5,18.5 L211.5,18.5 A0,0 0 0 0 211.5,18.5 " fill="#FBFB77" filter="url(#f1hrdo0sifbjit)" style="stroke: #A80036; stroke-width: 1.0;"/><path d="M566.5,18.5 L566.5,28.5 L576.5,28.5 L566.5,18.5 " fill="#FBFB77" style="stroke: #A80036; stroke-width: 1.0;"/><text fill="#000000" font-family="sans-serif" font-size="13" lengthAdjust="spacingAndGlyphs" textLength="124" x="217.5" y="35.5669">API Gateway routes</text><text fill="#000000" font-family="sans-serif" font-size="13" lengthAdjust="spacingAndGlyphs" textLength="344" x="217.5" y="50.6997">HTTP requests to /v2 of the API in the petstore service</text><path d="M6,266 L6,306.2656 L342,306.2656 L342,276 L332,266 L6,266 " fill="#FBFB77" filter="url(#f1hrdo0sifbjit)" style="stroke: #A80036; stroke-width: 1.0;"/><path d="M332,266 L332,276 L342,276 L332,266 " fill="#FBFB77" style="stroke: #A80036; stroke-width: 1.0;"/><text fill="#000000" font-family="sans-serif" font-size="13" lengthAdjust="spacingAndGlyphs" textLength="273" x="12" y="283.0669">The petstore service provides one API (/v2)</text><text fill="#000000" font-family="sans-serif" font-size="13" lengthAdjust="spacingAndGlyphs" textLength="315" x="12" y="298.1997">This service runs in its own embedded web server</text><!--link petstore to GMN717--><path d="M174,214.3829 C174,214.6963 174,215.0102 174,215.3246 C174,217.8394 174,220.3827 174,222.9355 C174,228.0412 174,233.1848 174,238.2138 C174,248.2718 174,257.8716 174,265.7932 " fill="none" id="petstore-GMN717" style="stroke: #A80036; stroke-width: 1.0; stroke-dasharray: 7.0,7.0;"/><!--link gateway to petstore_api_v2--><path d="M105,69.0712 C105,85.4159 105,105.8243 105,123.8133 " fill="none" id="gateway-petstore_api_v2" style="stroke: #A80036; stroke-width: 1.0;"/><polygon fill="#A80036" points="105,128.8176,109,119.8176,105,123.8176,101,119.8176,105,128.8176" style="stroke: #A80036; stroke-width: 1.0;"/><!--
@startuml
skinparam rectangle {
    roundCorner<<Service>> 25
    BackgroundColor<<API>> LightBlue
    BackgroundColor<<Service>> PaleGreen
}

rectangle gateway [
<b>API Gateway</b>
===
/petstore/api/v2
]

rectangle petstore <<Service>> {
    rectangle petstore_api_v2 <<API>> [
    <b>/v2</b>
    ==
    /pets
    ]
}

note right of gateway: API Gateway routes\nHTTP requests to /v2 of the API in the petstore service
note bottom of petstore: The petstore service provides one API (/v2)\nThis service runs in its own embedded web server

gateway - -> petstore_api_v2
@enduml

PlantUML version 1.2018.10(Sat Aug 25 17:02:59 UTC 2018)
(GPL source distribution)
Java Runtime: OpenJDK Runtime Environment
JVM: OpenJDK 64-Bit Server VM
Java Version: 10.0.2+13-Debian-1
Operating System: Linux
OS Version: 4.9.125-linuxkit
Default Encoding: UTF-8
Language: en
Country: null
--></g></svg>