<?xml version="1.0" encoding="iso-8859-1"?>
<!-- Generator: Adobe Illustrator 17.1.0, SVG Export Plug-In . SVG Version: 6.00 Build 0)  -->
<!DOCTYPE svg PUBLIC "-//W3C//DTD SVG 1.1//EN" "http://www.w3.org/Graphics/SVG/1.1/DTD/svg11.dtd">
<svg version="1.1" id="Capa_1" xmlns="http://www.w3.org/2000/svg" xmlns:xlink="http://www.w3.org/1999/xlink" x="0px" y="0px"
	 viewBox="0 0 298.719 298.719" style="enable-background:new 0 0 298.719 298.719;" xml:space="preserve">
<g>
	<path d="M82.949,157.859c3.826,30.183,27.577,54.084,57.577,57.91v-57.91H82.949z"/>
	<path d="M156.526,215.896c31-3.418,55.375-27.52,59.243-58.037h-59.243V215.896z"/>
	<path d="M215.896,141.859c-3.455-30.989-28.37-55.582-59.37-59.037v59.037H215.896z"/>
	<path d="M140.526,82.949c-30,3.868-54.286,28.256-57.704,58.91h57.704V82.949z"/>
	<path d="M149.359,0C66.87,0,0,66.867,0,149.359s66.87,149.359,149.359,149.359s149.359-66.867,149.359-149.359S231.849,0,149.359,0
		z M282.505,141.859h-21.041c-3.697-56.078-48.938-100.907-104.938-104.605V16.214c33,1.807,63.554,15.434,86.966,38.845
		C266.904,78.471,280.698,109.057,282.505,141.859z M238.859,157.859h6.48c-4.102,46.697-41.814,83.947-88.814,87.569v-5.569
		c0-4.418-3.582-8-8-8s-8,3.582-8,8v5.48c-46-4.072-83.075-41.116-87.147-87.48h5.481c4.418,0,8-3.582,8-8s-3.582-8-8-8H53.29
		c3.622-46.831,41.236-84.379,87.236-88.481v6.481c0,4.418,3.582,8,8,8s8-3.582,8-8V53.29c47,3.648,85.254,41.403,88.902,88.569
		h-6.569c-4.418,0-8,3.582-8,8S234.441,157.859,238.859,157.859z M54.893,55.059c23.174-23.173,53.633-36.758,85.633-38.784v21.044
		c-55,4.159-99.597,48.796-103.271,104.541H16.214C18.021,109.057,31.482,78.471,54.893,55.059z M16.274,157.859h21.044
		c4.135,55.279,48.208,99.406,103.208,103.541v21.044c-32-2.026-62.459-15.611-85.633-38.784
		C31.719,220.486,18.301,190.283,16.274,157.859z M243.493,243.66c-23.412,23.411-53.966,37.038-86.966,38.845v-21.041
		c56-3.675,100.715-47.993,104.874-103.604h21.044C280.418,190.283,266.667,220.486,243.493,243.66z"/>
</g>
<g>
</g>
<g>
</g>
<g>
</g>
<g>
</g>
<g>
</g>
<g>
</g>
<g>
</g>
<g>
</g>
<g>
</g>
<g>
</g>
<g>
</g>
<g>
</g>
<g>
</g>
<g>
</g>
<g>
</g>
</svg>
